/* XPM */
static const char * computer_stopped[] = {
"64 64 84 1",
" 	c None",
".	c #9D9D9D",
"+	c #CBCBCB",
"@	c #BDBFC1",
"#	c #A4A4A4",
"$	c #ABABAB",
"%	c #AFB0B4",
"&	c #B5B5B5",
"*	c #B7B8BA",
"=	c #BCBCBC",
"-	c #C4C4C4",
";	c #F3F3F3",
">	c #E3E3E3",
",	c #C7C9CA",
"'	c #CECFD1",
")	c #D3D3D3",
"!	c #DCDCDC",
"~	c #ECEDED",
"{	c #FCFCFC",
"]	c #476A7A",
"^	c #5A87A4",
"/	c #5C8BA6",
"(	c #618FA7",
"_	c #6190A7",
":	c #5B8EA8",
"<	c #5282A5",
"[	c #000000",
"}	c #4B7FAF",
"|	c #5B92AC",
"1	c #5C96B4",
"2	c #5996B9",
"3	c #457CB5",
"4	c #4A7FB1",
"5	c #4C91BB",
"6	c #498FBE",
"7	c #407AB9",
"8	c #488EC0",
"9	c #2B6DBC",
"0	c #B4B7BA",
"a	c #2E75CE",
"b	c #458CC4",
"c	c #2C71C6",
"d	c #CFD1D2",
"e	c #3F88CC",
"f	c #9C9EA1",
"g	c #DADCE0",
"h	c #3C86CE",
"i	c #347ED0",
"j	c #327ACF",
"k	c #3781D1",
"l	c #377DC4",
"m	c #D4D6D9",
"n	c #979999",
"o	c #959595",
"p	c #BDC0C2",
"q	c #8C8C8C",
"r	c #8F9092",
"s	c #A6A7A9",
"t	c #7C7D7E",
"u	c #747575",
"v	c #626364",
"w	c #86878B",
"x	c #C5C7CA",
"y	c #AAAEB2",
"z	c #9EA1A4",
"A	c #222223",
"B	c #5A5B5C",
"C	c #737578",
"D	c #8F9299",
"E	c #8C8E92",
"F	c #83888D",
"G	c #7D8186",
"H	c #76797E",
"I	c #4B4C4D",
"J	c #131414",
"K	c #96979A",
"L	c #828283",
"M	c #67696C",
"N	c #515357",
"O	c #2C2C2D",
"P	c #3C3C3D",
"Q	c #6B6C6E",
"R	c #666768",
"S	c #1C1C1C",
"                                                                ",
"                                                                ",
"                                                                ",
"                                                                ",
"    .+@###$$$$%%%&&&&&&&&*****==================@@@==*&&&-+$    ",
"    $;>*==@-,++''))))))))!)!!!!!!!>>>>!>>!>!!>!>>!!!!!!)'~;-    ",
"    ${>*==@--++''))))))!!!!!!>!!>>>>>>>>>>>>>>>>>>>>!!!)'~{-    ",
"    ${>*==@---+')))))!)))!!!!!>>>>>>>>>>>>>>>>>>>>>!!!)))~{@    ",
"    #{~&]^^^^^^^///(/(((((((__________________________:]'~{@    ",
"    #{>&<[[[[[[[[[[[[[[[[[[[[[[[[[[[[[[[[[[[[[[[[[[[[[[:)~{=    ",
"    #{~&<[[[[[[[[[[[[[[[[[[[[[[[[[[[[[[[[[[[[[[[[[[[[[[:)~{=    ",
"    #{>&<[[[[[[[[[[[[[[[[[[[[[[[[[[[[[[[[[[[[[[[[[[[[[[:)~{*    ",
"    #{>&}[[[[[[[[[[[[[[[[[[[[[[[[[[[[[[[[[[[[[[[[[[[[[[:)~{*    ",
"    .{>&}[[[[[[[[[[[[[[[[[[[[[[[[[[[[[[[[[[[[[[[[[[[[[[|)~{*    ",
"    #{>&}[[[[[[[[[[[[[[[[[[[[[[[[[[[[[[[[[[[[[[[[[[[[[[|)~{*    ",
"    .;>&}[[[[[[[[[[[[[[[[[[[[[[[[[[[[[[[[[[[[[[[[[[[[[[_)~{&    ",
"    .{>*}[[[[[[[[[[[[[[[[[[[[[[[[[[[[[[[[[[[[[[[[[[[[[[1!~{&    ",
"    .{>*}[[[[[[[[[[[[[[[[[[[[[[[[[[[[[[[[[[[[[[[[[[[[[[1)~{&    ",
"    .{~&}[[[[[[[[[[[[[[[[[[[[[[[[[[[[[[[[[[[[[[[[[[[[[[1)~{&    ",
"    .{>*}[[[[[[[[[[[[[[[[[[[[[[[[[[[[[[[[[[[[[[[[[[[[[[1)~{&    ",
"    .{>*}[[[[[[[[[[[[[[[[[[[[[[[[[[[[[[[[[[[[[[[[[[[[[[2)~{&    ",
"    .{>*}[[[[[[[[[[[[[[[[[[[[[[[[[[[[[[[[[[[[[[[[[[[[[[2)~{&    ",
"    .{>=3[[[[[[[[[[[[[[[[[[[[[[[[[[[[[[[[[[[[[[[[[[[[[[2'~{&    ",
"    .{>&3[[[[[[[[[[[[[[[[[[[[[[[[[[[[[[[[[[[[[[[[[[[[[[2)~{&    ",
"    .{>&4[[[[[[[[[[[[[[[[[[[[[[[[[[[[[[[[[[[[[[[[[[[[[[5)~{&    ",
"    .{>*3[[[[[[[[[[[[[[[[[[[[[[[[[[[[[[[[[[[[[[[[[[[[[[5)~{&    ",
"    .{>&3[[[[[[[[[[[[[[[[[[[[[[[[[[[[[[[[[[[[[[[[[[[[[[6'~{&    ",
"    .{~*3[[[[[[[[[[[[[[[[[[[[[[[[[[[[[[[[[[[[[[[[[[[[[[6)~{&    ",
"    .{~&3[[[[[[[[[[[[[[[[[[[[[[[[[[[[[[[[[[[[[[[[[[[[[[6)~{&    ",
"    .{>*7[[[[[[[[[[[[[[[[[[[[[[[[[[[[[[[[[[[[[[[[[[[[[[8)~{&    ",
"    .{>*9[[[[[[[[[[[[[[[[[[[[[[[[[[[[[[[[[[[[[[[[[[[[[[8'~{&    ",
"    .{>*9[[[[[[[[[[[[[[[[[[[[[[[[[[[[[[[[[[[[[[[[[[[[[[8)~{&    ",
"    .{~0a[[[[[[[[[[[[[[[[[[[[[[[[[[[[[[[[[[[[[[[[[[[[[[b+~{&    ",
"    .{>0c[[[[[[[[[[[[[[[[[[[[[[[[[[[[[[[[[[[[[[[[[[[[[[bd~{&    ",
"    .{>0c[[[[[[[[[[[[[[[[[[[[[[[[[[[[[[[[[[[[[[[[[[[[[[ed~{&    ",
"    .{>0a[[[[[[[[[[[[[[[[[[[[[[[[[[[[[[[[[[[[[[[[[[[[[[ed~{&    ",
"    f{>0a[[[[[[[[[[[[[[[[[[[[[[[[[[[[[[[[[[[[[[[[[[[[[[e)~{&    ",
"    f{>0a[[[[[[[[[[[[[[[[[[[[[[[[[[[[[[[[[[[[[[[[[[[[[[e)~{&    ",
"    f;g@a[[[[[[[[[[[[[[[[[[[[[[[[[[[[[[[[[[[[[[[[[[[[[[e'~{&    ",
"    f;g@a[[[[[[[[[[[[[[[[[[[[[[[[[[[[[[[[[[[[[[[[[[[[[[h)~{&    ",
"    .{>*c[[[[[[[[[[[[[[[[[[[[[[[[[[[[[[[[[[[[[[[[[[[[[[h'~{&    ",
"    .{>*c[[[[[[[[[[[[[[[[[[[[[[[[[[[[[[[[[[[[[[[[[[[[[[h)~{&    ",
"    .{>*c[[[[[[[[[[[[[[[[[[[[[[[[[[[[[[[[[[[[[[[[[[[[[[h'~{&    ",
"    .{>*9aaaaaaaaaaaaaaaaacacaaaaaaaaaiiijiiiiiiihkkkihl)~{&    ",
"    .&&&===---+''d))mdmm)!!!!!!!>>>>>>>>>>>>>>>>>>--)!!))++&    ",
"    .&&&===--++''d))mmmm!)!!!!>>>>>>>>>>>>>>>>>>>*non!!))++&    ",
"    .&&&===-+++'')d)dmmm!!!!!>!>g>>>>>>>>>>>>>>>>$=&$!!))++&    ",
"    o.##$$$$&&****@@@@p@-----+-,',',,'++++++,,,,++qr,--==*&$    ",
"                           ##$&-=&#oqo                          ",
"                           &+)>~~)@$o.                          ",
"                           ,'!~;~)@$o.                          ",
"                           ,'!~{~!-$o$                          ",
"                     ......s-!~{~!-&&.n.....t                   ",
"           +++)+++,--------..$&@-=&#nn*-,-----,,++',+-u         ",
"     [[[[vw$-!~;;;;;~>!)++-&onnnnnnoo$-,')!>;;;;;;~!x0yz[[[[    ",
"    [[[[[ABCwf%-m!)'))!~~~~~~~~~~~~~~>~~~~>)+-==&zDEFGHI[[[[[   ",
"    [[[[[[[[[[Jvq###KrLu}qns&@,)!)),-=&s.oqLH}tuMNA[[[[[[[[[[   ",
"    [[[[[[[[[[[[[[[[[[[JAOPIBQtr#owuRBIPOS[[[[[[[[[[[[[[[[[[    ",
"            [[[[[[[[[[[[[[[[[[[[[[[[[[[[[[[[[[[[[[[[[[[         ",
"                                                                ",
"                                                                ",
"                                                                ",
"                                                                ",
"                                                                "};
