/* XPM */
static const char *computer_running[] = {
/* columns rows colors chars-per-pixel */
"64 64 129 2",
"   c black",
".  c #131414",
"X  c gray11",
"o  c #222223",
"O  c #2C2C2D",
"+  c #3C3C3D",
"@  c #4B4C4D",
"#  c #515357",
"$  c #5A5B5C",
"%  c #416278",
"&  c #476A7A",
"*  c #626364",
"=  c #666768",
"-  c #67696C",
";  c #6B6C6E",
":  c #747575",
">  c #737578",
",  c #76797E",
"<  c #7C7D7E",
"1  c #2B6DBC",
"2  c #3F79BA",
"3  c #2B6EC2",
"4  c #2C71C6",
"5  c #2E75CE",
"6  c #2F78CE",
"7  c #377DC4",
"8  c #327ACF",
"9  c #347ED0",
"0  c #4B7FAF",
"q  c #457CB5",
"w  c #407AB9",
"e  c #4A7FB1",
"r  c #3C86CE",
"t  c #3F88CC",
"y  c #3781D1",
"u  c #3983D1",
"i  c #3484E6",
"p  c #3788E7",
"a  c #398AE7",
"s  c #3C8DE8",
"d  c #3E91E9",
"f  c #4E81AC",
"g  c #498FBE",
"h  c #4C91BB",
"j  c #5282A5",
"k  c #5081A9",
"l  c #5A87A4",
"z  c #5C8BA6",
"x  c #5B8EA8",
"c  c #5B92AC",
"v  c #5C96B4",
"b  c #5996B9",
"n  c #7D8186",
"m  c #618FA7",
"M  c #6190A7",
"N  c #458CC4",
"B  c #4189C9",
"V  c #488EC0",
"C  c #4295EA",
"Z  c #469AEB",
"A  c #4C96EA",
"S  c #4A9CEB",
"D  c #529DEB",
"F  c #4DA2ED",
"G  c #54A3ED",
"H  c #53AAEF",
"J  c #5AA5ED",
"K  c #5DAAEE",
"L  c #57AEF0",
"P  c #58AFF0",
"I  c #5BB3F1",
"U  c #62ACEF",
"Y  c #63AFF0",
"T  c #65B0EF",
"R  c #65B2F0",
"E  c #64BAF2",
"W  c #6BB5F1",
"Q  c #6DBAF2",
"!  c #73BCF3",
"~  c #78BFF3",
"^  c #6CC0F3",
"/  c #75C2F4",
"(  c #7BC4F4",
")  c #7DCAF6",
"_  c #828283",
"`  c #86878B",
"'  c #83888D",
"]  c gray55",
"[  c #8C8E92",
"{  c #8F9092",
"}  c #8F9299",
"|  c #959595",
" . c #96979A",
".. c #979999",
"X. c #9D9D9D",
"o. c #9C9EA1",
"O. c #9EA1A4",
"+. c #A4A4A4",
"@. c #A6A7A9",
"#. c gray67",
"$. c #AAAEB2",
"%. c #AFB0B4",
"&. c gray71",
"*. c #B4B7BA",
"=. c #B7B8BA",
"-. c #BCBCBC",
";. c #BDBFC1",
":. c #80C7F5",
">. c #82CCF6",
",. c #84D1F7",
"<. c #86D2F8",
"1. c #88D1F7",
"2. c #88D3F8",
"3. c #BDC0C2",
"4. c gray77",
"5. c #C5C7CA",
"6. c #C7C9CA",
"7. c #CBCBCB",
"8. c #CECFD1",
"9. c #CFD1D2",
"0. c LightGray",
"q. c #D4D6D9",
"w. c gainsboro",
"e. c #DADCE0",
"r. c gray89",
"t. c #ECEDED",
"y. c #F3F3F3",
"u. c gray99",
"i. c None",
/* pixels */
"i.i.i.i.i.i.i.i.i.i.i.i.i.i.i.i.i.i.i.i.i.i.i.i.i.i.i.i.i.i.i.i.i.i.i.i.i.i.i.i.i.i.i.i.i.i.i.i.i.i.i.i.i.i.i.i.i.i.i.i.i.i.i.i.",
"i.i.i.i.i.i.i.i.i.i.i.i.i.i.i.i.i.i.i.i.i.i.i.i.i.i.i.i.i.i.i.i.i.i.i.i.i.i.i.i.i.i.i.i.i.i.i.i.i.i.i.i.i.i.i.i.i.i.i.i.i.i.i.i.",
"i.i.i.i.i.i.i.i.i.i.i.i.i.i.i.i.i.i.i.i.i.i.i.i.i.i.i.i.i.i.i.i.i.i.i.i.i.i.i.i.i.i.i.i.i.i.i.i.i.i.i.i.i.i.i.i.i.i.i.i.i.i.i.i.",
"i.i.i.i.i.i.i.i.i.i.i.i.i.i.i.i.i.i.i.i.i.i.i.i.i.i.i.i.i.i.i.i.i.i.i.i.i.i.i.i.i.i.i.i.i.i.i.i.i.i.i.i.i.i.i.i.i.i.i.i.i.i.i.i.",
"i.i.i.i.X.7.;.+.+.+.#.#.#.#.%.%.%.&.&.&.&.&.&.&.&.=.=.=.=.=.-.-.-.-.-.-.-.-.-.-.-.-.-.-.-.-.-.-.;.;.;.-.-.=.&.&.&.4.7.#.i.i.i.i.",
"i.i.i.i.#.y.r.=.-.-.;.4.6.7.7.8.8.0.0.0.0.0.0.0.0.w.0.w.w.w.w.w.w.w.r.r.r.r.w.r.r.w.r.w.w.r.w.r.r.w.w.w.w.w.w.0.8.t.y.4.i.i.i.i.",
"i.i.i.i.#.u.r.=.-.-.;.4.4.7.7.8.8.0.0.0.0.0.0.w.w.w.w.w.w.r.w.w.r.r.r.r.r.r.r.r.r.r.r.r.r.r.r.r.r.r.r.r.w.w.w.0.8.t.u.4.i.i.i.i.",
"i.i.i.i.#.u.r.=.-.-.;.4.4.4.7.8.0.0.0.0.0.w.0.0.0.w.w.w.w.w.r.r.r.r.r.r.r.r.r.r.r.r.r.r.r.r.r.r.r.r.r.w.w.w.0.0.0.t.u.;.i.i.i.i.",
"i.i.i.i.+.u.t.&.& l l l l l l l z z z m z m m m m m m m M M M M M M M M M M M M M M M M M M M M M M M M M M x & 8.t.u.;.i.i.i.i.",
"i.i.i.i.+.u.r.&.j :.:.:.:.:.:.:.>.:.:.>.>.>.>.>.>.1.>.1.1.1.1.1.1.2.2.2.2.2.2.2.2.2.2.2.2.<.2.2.2.2.2.2.2.2.<.x 0.t.u.-.i.i.i.i.",
"i.i.i.i.+.u.t.&.j :.( :.( :.( :.:.:.:.:.:.>.>.>.>.>.>.1.>.,.1.1.1.1.1.2.2.2.2.<.2.2.2.2.<.<.<.<.<.<.2.2.<.<.<.x 0.t.u.-.i.i.i.i.",
"i.i.i.i.+.u.r.&.j ~ ~ ~ ~ ~ ( ( ( ( ( ( :.:.:.:.:.>.>.>.>.>.>.,.1.1.1.1.<.<.<.<.2.2.2.2.<.<.<.<.<.<.<.<.<.<.<.x 0.t.u.=.i.i.i.i.",
"i.i.i.i.+.u.r.&.0 ~ ~ ~ ~ ~ ( ~ ( ( ( ( ( ( ( ( :.:.:.>.) :.:.>.>.>.>.>.,.<.<.<.2.2.<.<.<.<.<.<.<.<.<.2.<.<.<.x 0.t.u.=.i.i.i.i.",
"i.i.i.i.X.u.r.&.0 ~ ~ ~ ~ ~ ~ ~ ( / ~ ( ( ( ( ( ( ( ) :.) ) ) :.>.>.>.>.>.>.,.,.<.2.,.<.<.<.<.<.<.<.2.,.<.<.,.c 0.t.u.=.i.i.i.i.",
"i.i.i.i.+.u.r.&.0 ! ~ ~ ! ~ ~ ~ ~ ~ ~ ~ ( ( / ( ( ( ( ( ( ) ) ) ) >.) >.>.>.>.>.>.>.,.,.,.<.<.<.,.,.,.,.,.,.,.c 0.t.u.=.i.i.i.i.",
"i.i.i.i.X.y.r.&.0 ! W W ! ! ! ! ! ! ! ~ ~ ~ ~ ~ ( ( ( ( ( ( ( ( ) ( ) ( ) ) ) >.>.>.>.>.) <.) <.,.,.,.,.,.,.,.M 0.t.u.&.i.i.i.i.",
"i.i.i.i.X.u.r.=.0 W :.:.U :.:.:.U :.:.:.U :.U :.~ / ~ / / ( ( ( / ) ) ) ) ) ) ) ) ) ) ) ) ) ) ) ) ,.,.,.) ) 2.v w.t.u.&.i.i.i.i.",
"i.i.i.i.X.u.r.=.0 :.U U U U U :.U U U :.:.U U :.! ! ! ! / / / / / / / / / ) ) ) ) ) ) ) ) ) ) ) ) ) ) ) ) ) ) v 0.t.u.&.i.i.i.i.",
"i.i.i.i.X.u.t.&.0 W W W U U :.U :.:.U U U :.U :.! ! ! ! ! ! / ! ! / / / / / / / / / ) ) ) ) ) ) ) ) ) ) ) ) ) v 0.t.u.&.i.i.i.i.",
"i.i.i.i.X.u.r.=.0 U U U :.U U U U U U :.W W W U W Q Q ! Q ! ! ! ! ! ! / / / / / / / / ) ) ) ) ) ) ) ) ) ) ) ) v 0.t.u.&.i.i.i.i.",
"i.i.i.i.X.u.r.=.0 U U U U T W U W U U :.U W :.U W W ! Q Q Q ! Q ! ! ! ! ! ^ / ^ / / / ) / / / / ) ) ) ) ) ) ) b 0.t.u.&.i.i.i.i.",
"i.i.i.i.X.u.r.=.0 U U U U U U U U U U W U W U U W W W W W W Q Q Q Q Q ! ! ! ! ! ^ ^ / ^ / / / / / ) / ) ^ ) ) b 0.t.u.&.i.i.i.i.",
"i.i.i.i.X.u.r.-.q U U U U U U U U U U U U W U W R R R W W W W W W W Q Q Q Q ! ! ^ / ^ ^ / / / / / / / ) ^ ) ) b 8.t.u.&.i.i.i.i.",
"i.i.i.i.X.u.r.&.q J J J U U U U U U U U U U U U U R R R R R R W W W E E E Q Q Q Q Q Q ^ Q Q ^ / ^ ^ ^ / / ^ ^ b 0.t.u.&.i.i.i.i.",
"i.i.i.i.X.u.r.&.e U J J J J J J U U U U U U U U U U U U R Y R R E R R W W W W Q W E Q Q Q Q Q Q ^ ^ Q / ^ ^ ^ h 0.t.u.&.i.i.i.i.",
"i.i.i.i.X.u.r.=.q D D D J J J J J J J J U U J J U U U U U U Y Y Y R Y Y R R R R R E W W Q E Q Q Q Q Q Q E E E h 0.t.u.&.i.i.i.i.",
"i.i.i.i.X.u.r.&.q D D U J J J J J J J J J J J J J U U U U U U U Y Y Y Y R R R R R E E E E W E E Q E E I I E I g 8.t.u.&.i.i.i.i.",
"i.i.i.i.X.u.t.=.q D D D D D D D D J D D J J J J J J J J J K K U P P Y Y I Y I R T T T T E R R R I I I I I I I g 0.t.u.&.i.i.i.i.",
"i.i.i.i.X.u.t.&.q A D D D D D D D D D J J D J J J J J J J J J J K K U P P P Y Y T T I Y P L L L L L L L I I I g 0.t.u.&.i.i.i.i.",
"i.i.i.i.X.u.r.=.w A A A A A A A D D D D D D D J D D J J D J J J J J K P K P K K H H H H H F H L L L L L P I I V 0.t.u.&.i.i.i.i.",
"i.i.i.i.X.u.r.=.1 C C A A A A A A A A A D D D D D D D D D D D J G J G G F F F F F F F H F H L H F L L L L P H V 8.t.u.&.i.i.i.i.",
"i.i.i.i.X.u.r.=.1 p 9 p p C C C A A A A A A A A D D D D D D D D S S S S F S S S F F F F F F F F H H H L H H L V 0.t.u.&.i.i.i.i.",
"i.i.i.i.X.u.t.*.5 i i i p p p p a s a a s s d d d d d d C C C Z C C Z Z S Z S S F F F F F F F F H H H H H H H N 7.t.u.&.i.i.i.i.",
"i.i.i.i.X.u.r.*.4 i i i i i p i p a a a a s s s d d d d C d C C C C C C Z Z Z S Z F F Z F F F F F F F F H H H N 9.t.u.&.i.i.i.i.",
"i.i.i.i.X.u.r.*.4 9 i i i i i i p p a a a a s s s s d d d d d d C C C C Z Z Z Z Z Z S S Z F F F F F F F F H H t 9.t.u.&.i.i.i.i.",
"i.i.i.i.X.u.r.*.5 9 i i i i i 9 i i i i p a a a s s s s s d d d C C C C C C C Z Z Z Z Z Z Z Z F F F F F F F F t 9.t.u.&.i.i.i.i.",
"i.i.i.i.o.u.r.*.5 9 9 i 9 i i i i i i i i i i p p p s s s s s s d d d d d C C C C Z C Z Z Z Z Z F F F F F F F t 0.t.u.&.i.i.i.i.",
"i.i.i.i.o.u.r.*.5 5 i i i i i i i i i i i i i i p p p p a s s s a d d d d d d C C C C C Z Z Z Z Z Z Z F Z F F t 0.t.u.&.i.i.i.i.",
"i.i.i.i.o.y.e.;.5 i 9 i i i i i i i i i i i i i i i i p a a a a a a d d d d d d C d C C C C Z Z d Z F Z Z F F t 8.t.u.&.i.i.i.i.",
"i.i.i.i.o.y.e.;.5 i i i i 9 i i i i i i i i i i i i i i i i i p p a a a a d d d d d d d C C C C d Z Z Z Z Z Z r 0.t.u.&.i.i.i.i.",
"i.i.i.i.X.u.r.=.4 i i i i i 9 i i i i i i i 9 i i i i i i i i i p p p a p s s s s s d d d C d C C C C Z Z Z Z r 8.t.u.&.i.i.i.i.",
"i.i.i.i.X.u.r.=.4 i i i i i i i i i i i i i i i i i i i i i i i p i p p p p p s s s s s d d d d d C C C C Z Z r 0.t.u.&.i.i.i.i.",
"i.i.i.i.X.u.r.=.4 i i i i i i i i i i i i 9 i i i i i i i i i i i i i p p p p p p p s s s s s d s d C C C C Z r 8.t.u.&.i.i.i.i.",
"i.i.i.i.X.u.r.=.1 5 5 5 5 5 5 5 5 5 5 5 5 5 5 5 5 5 4 5 4 5 5 5 5 5 5 5 5 5 9 9 9 8 9 9 9 9 9 9 9 r y y y 9 r 7 0.t.u.&.i.i.i.i.",
"i.i.i.i.X.&.&.&.-.-.-.4.4.4.7.8.8.9.0.0.q.9.q.q.0.w.w.w.w.w.w.w.r.r.r.r.r.r.r.r.r.r.r.r.r.r.r.r.r.r.4.4.0.w.w.0.0.7.7.&.i.i.i.i.",
"i.i.i.i.X.&.&.&.-.-.-.4.4.7.7.8.8.9.0.0.q.q.q.q.w.0.w.w.w.w.r.r.r.r.r.r.r.r.r.r.r.r.r.r.r.r.r.r.r.=...| ..w.w.0.0.7.7.&.i.i.i.i.",
"i.i.i.i.X.&.&.&.-.-.-.4.7.7.7.8.8.0.9.0.9.q.q.q.w.w.w.w.w.r.w.r.e.r.r.r.r.r.r.r.r.r.r.r.r.r.r.r.r.#.-.&.#.w.w.0.0.7.7.&.i.i.i.i.",
"i.i.i.i.| X.+.+.#.#.#.#.&.&.=.=.=.=.;.;.;.;.3.;.4.4.4.4.4.7.4.6.8.6.8.6.6.8.7.7.7.7.7.7.6.6.6.6.7.7.] { 6.4.4.-.-.=.&.#.i.i.i.i.",
"i.i.i.i.i.i.i.i.i.i.i.i.i.i.i.i.i.i.i.i.i.i.i.i.i.i.i.+.+.#.&.4.-.&.+.| ] | i.i.i.i.i.i.i.i.i.i.i.i.i.i.i.i.i.i.i.i.i.i.i.i.i.i.",
"i.i.i.i.i.i.i.i.i.i.i.i.i.i.i.i.i.i.i.i.i.i.i.i.i.i.i.&.7.0.r.t.t.0.;.#.| X.i.i.i.i.i.i.i.i.i.i.i.i.i.i.i.i.i.i.i.i.i.i.i.i.i.i.",
"i.i.i.i.i.i.i.i.i.i.i.i.i.i.i.i.i.i.i.i.i.i.i.i.i.i.i.6.8.w.t.y.t.0.;.#.| X.i.i.i.i.i.i.i.i.i.i.i.i.i.i.i.i.i.i.i.i.i.i.i.i.i.i.",
"i.i.i.i.i.i.i.i.i.i.i.i.i.i.i.i.i.i.i.i.i.i.i.i.i.i.i.6.8.w.t.u.t.w.4.#.| #.i.i.i.i.i.i.i.i.i.i.i.i.i.i.i.i.i.i.i.i.i.i.i.i.i.i.",
"i.i.i.i.i.i.i.i.i.i.i.i.i.i.i.i.i.i.i.i.i.X.X.X.X.X.X.@.4.w.t.u.t.w.4.&.&.X...X.X.X.X.X.< i.i.i.i.i.i.i.i.i.i.i.i.i.i.i.i.i.i.i.",
"i.i.i.i.i.i.i.i.i.i.i.7.7.7.0.7.7.7.6.4.4.4.4.4.4.4.4.X.X.#.&.;.4.-.&.+.....=.4.6.4.4.4.4.4.6.6.7.7.8.6.7.4.: i.i.i.i.i.i.i.i.i.",
"i.i.i.i.i.        * ` #.4.w.t.y.y.y.y.y.t.r.w.0.7.7.4.&.| ............| | #.4.6.8.0.w.r.y.y.y.y.y.y.t.w.5.*.$.O.        i.i.i.i.",
"i.i.i.i.          o $ > ` o.%.4.q.w.0.8.0.0.w.t.t.t.t.t.t.t.t.t.t.t.t.t.t.r.t.t.t.t.r.0.7.4.-.-.&.O.} [ ' n , @           i.i.i.",
"i.i.i.i.                    . * ] +.+.+. .{ _ : 0 ] ..@.&.;.6.0.w.0.0.6.4.-.&.@.X.| ] _ , 0 < : - # o                     i.i.i.",
"i.i.i.i.                                      . o O + @ $ ; < { +.| ` : = $ @ + O X                                     i.i.i.i.",
"i.i.i.i.i.i.i.i.i.i.i.i.                                                                                      i.i.i.i.i.i.i.i.i.",
"i.i.i.i.i.i.i.i.i.i.i.i.i.i.i.i.i.i.i.i.i.i.i.i.i.i.i.i.i.i.i.i.i.i.i.i.i.i.i.i.i.i.i.i.i.i.i.i.i.i.i.i.i.i.i.i.i.i.i.i.i.i.i.i.",
"i.i.i.i.i.i.i.i.i.i.i.i.i.i.i.i.i.i.i.i.i.i.i.i.i.i.i.i.i.i.i.i.i.i.i.i.i.i.i.i.i.i.i.i.i.i.i.i.i.i.i.i.i.i.i.i.i.i.i.i.i.i.i.i.",
"i.i.i.i.i.i.i.i.i.i.i.i.i.i.i.i.i.i.i.i.i.i.i.i.i.i.i.i.i.i.i.i.i.i.i.i.i.i.i.i.i.i.i.i.i.i.i.i.i.i.i.i.i.i.i.i.i.i.i.i.i.i.i.i.",
"i.i.i.i.i.i.i.i.i.i.i.i.i.i.i.i.i.i.i.i.i.i.i.i.i.i.i.i.i.i.i.i.i.i.i.i.i.i.i.i.i.i.i.i.i.i.i.i.i.i.i.i.i.i.i.i.i.i.i.i.i.i.i.i.",
"i.i.i.i.i.i.i.i.i.i.i.i.i.i.i.i.i.i.i.i.i.i.i.i.i.i.i.i.i.i.i.i.i.i.i.i.i.i.i.i.i.i.i.i.i.i.i.i.i.i.i.i.i.i.i.i.i.i.i.i.i.i.i.i."
};
