/* XPM */
static const char *computer_stopped[] = {
/* columns rows colors chars-per-pixel */
"64 64 68 1",
"  c #416278",
". c #476A7A",
"X c #767676",
"o c #7D7D7E",
"O c #2B6DBC",
"+ c #3F79BA",
"@ c #2B6EC2",
"# c #2C71C6",
"$ c #2E75CE",
"% c #2F78CE",
"& c #377DC4",
"* c #327ACF",
"= c #347ED0",
"- c #4B7FAF",
"; c #457CB5",
": c #407AB9",
"> c #4A7FB1",
", c #3C86CE",
"< c #3F88CC",
"1 c #3781D1",
"2 c #3983D1",
"3 c #4E81AC",
"4 c #498FBE",
"5 c #4C91BB",
"6 c #5282A5",
"7 c #5081A9",
"8 c #5A87A4",
"9 c #5C8BA6",
"0 c #5B8EA8",
"q c #5B92AC",
"w c #5C96B4",
"e c #5996B9",
"r c #618FA7",
"t c #6190A7",
"y c #458CC4",
"u c #4189C9",
"i c #488EC0",
"p c #868788",
"a c #8C8D8D",
"s c #8F9299",
"d c #959595",
"f c #96999B",
"g c #9C9D9D",
"h c #9FA1A4",
"j c #A4A4A4",
"k c #A4A6A9",
"l c #ABABAC",
"z c #ACB0B4",
"x c gray71",
"c c #B6B7B9",
"v c #B6B8BA",
"b c #BCBCBC",
"n c #BDBFC1",
"m c #BEC0C2",
"M c gray77",
"N c #C6C7C9",
"B c #C7C9CA",
"V c #CBCBCC",
"C c #CECFD1",
"Z c #CFD1D2",
"A c LightGray",
"S c #D4D6D9",
"D c gainsboro",
"F c #DADCE0",
"G c gray89",
"H c #ECEDED",
"J c #F4F4F4",
"K c gray100",
/* pixels */
"KKKKKKKKKKKKKKKKKKKKKKKKKKKKKKKKKKKKKKKKKKKKKKKKKKKKKKKKKKKKKKKK",
"KKKKKKKKKKKKKKKKKKKKKKKKKKKKKKKKKKKKKKKKKKKKKKKKKKKKKKKKKKKKKKKK",
"KKKKKKKKKKKKKKKKKKKKKKKKKKKKKKKKKKKKKKKKKKKKKKKKKKKKKKKKKKKKKKKK",
"KKKKKKKKKKKKKKKKKKKKKKKKKKKKKKKKKKKKKKKKKKKKKKKKKKKKKKKKKKKKKKKK",
"KKKKgVbjjjjllllxxxxxxxxxxxbxbbbbbbbbbbbbbbbbbbbbbbbbbcxxlMVlKKKK",
"KKKKlJGbbbMMNBVCCCCCAADAAAADDDDDGDGDGDGGDDGDGDDDDGDDDSDAAHJMKKKK",
"KKKKlKGcbbMMMMVCAAAAAASSDDDDDDDDGGGGGGGGGGGGGGGGGGGGDDSAAHKbKKKK",
"KKKKkKGcbbMMMMVCAAAAAAASADDDDDGGGGGGGGGGGGGGGGGGGGGDGDAAAHKbKKKK",
"KKKKjKGc 888888889999909r0r0rrt0rttttttttttttttttttttt0.AHKbKKKK",
"KKKKjKGx6KKKKKKKKKKKKKKKKKKKKKKKKKKKKKKKKKKKKKKKKKKKKKK9AHKbKKKK",
"KKKKjKGb6KKKKKKKKKKKKKKKKKKKKKKKKKKKKKKKKKKKKKKKKKKKKKK9AHKbKKKK",
"KKKKjKGx6KKKKKKKKKKKKKKKKKKKKKKKKKKKKKKKKKKKKKKKKKKKKKK0AHKcKKKK",
"KKKKhKGx6KKKKKKKKKKKKKKKKKKKKKKKKKKKKKKKKKKKKKKKKKKKKKK0CHKbKKKK",
"KKKKhKGx6KKKKKKKKKKKKKKKKKKKKKKKKKKKKKKKKKKKKKKKKKKKKKK0CHKcKKKK",
"KKKKhKGx6KKKKKKKKKKKKKKKKKKKKKKKKKKKKKKKKKKKKKKKKKKKKKKqCHJxKKKK",
"KKKKhKGx7KKKKKKKKKKKKKKKKKKKKKKKKKKKKKKKKKKKKKKKKKKKKKKtAHKxKKKK",
"KKKKgKGx3KKKKKKKKKKKKKKKKKKKKKKKKKKKKKKKKKKKKKKKKKKKKKKqAHKxKKKK",
"KKKKgJGc3KKKKKKKKKKKKKKKKKKKKKKKKKKKKKKKKKKKKKKKKKKKKKKqAHKlKKKK",
"KKKKgKGb3KKKKKKKKKKKKKKKKKKKKKKKKKKKKKKKKKKKKKKKKKKKKKKwAHKxKKKK",
"KKKKgKGx-KKKKKKKKKKKKKKKKKKKKKKKKKKKKKKKKKKKKKKKKKKKKKKwAHKxKKKK",
"KKKKgKGx-KKKKKKKKKKKKKKKKKKKKKKKKKKKKKKKKKKKKKKKKKKKKKKwVHKxKKKK",
"KKKKgKGx-KKKKKKKKKKKKKKKKKKKKKKKKKKKKKKKKKKKKKKKKKKKKKKeAHKxKKKK",
"KKKKgKGb>KKKKKKKKKKKKKKKKKKKKKKKKKKKKKKKKKKKKKKKKKKKKKKeAHKlKKKK",
"KKKKgKGx;KKKKKKKKKKKKKKKKKKKKKKKKKKKKKKKKKKKKKKKKKKKKKKeAHKxKKKK",
"KKKKgKGx>KKKKKKKKKKKKKKKKKKKKKKKKKKKKKKKKKKKKKKKKKKKKKK5CHKxKKKK",
"KKKKgKGc;KKKKKKKKKKKKKKKKKKKKKKKKKKKKKKKKKKKKKKKKKKKKKK5AHKxKKKK",
"KKKKgJGx;KKKKKKKKKKKKKKKKKKKKKKKKKKKKKKKKKKKKKKKKKKKKKK4AHKlKKKK",
"KKKKgKHc+KKKKKKKKKKKKKKKKKKKKKKKKKKKKKKKKKKKKKKKKKKKKKK4CHKxKKKK",
"KKKKgKGc+KKKKKKKKKKKKKKKKKKKKKKKKKKKKKKKKKKKKKKKKKKKKKK4CHKlKKKK",
"KKKKgKGx+KKKKKKKKKKKKKKKKKKKKKKKKKKKKKKKKKKKKKKKKKKKKKK4CHKxKKKK",
"KKKKgKGxOKKKKKKKKKKKKKKKKKKKKKKKKKKKKKKKKKKKKKKKKKKKKKK4CHKxKKKK",
"KKKKgKGxOKKKKKKKKKKKKKKKKKKKKKKKKKKKKKKKKKKKKKKKKKKKKKK4AHKlKKKK",
"KKKKgKGcOKKKKKKKKKKKKKKKKKKKKKKKKKKKKKKKKKKKKKKKKKKKKKKyVHKxKKKK",
"KKKKgKGcOKKKKKKKKKKKKKKKKKKKKKKKKKKKKKKKKKKKKKKKKKKKKKKyAHKlKKKK",
"KKKKgKGbOKKKKKKKKKKKKKKKKKKKKKKKKKKKKKKKKKKKKKKKKKKKKKKyAHKxKKKK",
"KKKKgKGc@KKKKKKKKKKKKKKKKKKKKKKKKKKKKKKKKKKKKKKKKKKKKKKyAHKxKKKK",
"KKKKgKGc@KKKKKKKKKKKKKKKKKKKKKKKKKKKKKKKKKKKKKKKKKKKKKKyVHKxKKKK",
"KKKKgKGx@KKKKKKKKKKKKKKKKKKKKKKKKKKKKKKKKKKKKKKKKKKKKKKuVHKxKKKK",
"KKKKgKGc@KKKKKKKKKKKKKKKKKKKKKKKKKKKKKKKKKKKKKKKKKKKKKKuAHKlKKKK",
"KKKKgKGc#KKKKKKKKKKKKKKKKKKKKKKKKKKKKKKKKKKKKKKKKKKKKKK<AHKxKKKK",
"KKKKgKGc#KKKKKKKKKKKKKKKKKKKKKKKKKKKKKKKKKKKKKKKKKKKKKK<AHKlKKKK",
"KKKKgJGc#KKKKKKKKKKKKKKKKKKKKKKKKKKKKKKKKKKKKKKKKKKKKKK<AHKxKKKK",
"KKKKgJGb#KKKKKKKKKKKKKKKKKKKKKKKKKKKKKKKKKKKKKKKKKKKKKK,CHKxKKKK",
"KKKKgKGcO###$$$$$$$$$$$$$$$*$$$$$$$$$%*******1*,111122,+AHKlKKKK",
"KKKKgxxxbbMMMVVCCAAAAAASDADDDGDGGGGGGGGGGGGGGGGGGGNMDDAAACVxKKKK",
"KKKKgxxcbbMMMMVCCAAAAAASADDDDDDDDGGGGGGGGGGGGGDGGcfdgDDAAVVxKKKK",
"KKKKgxxxbbMMMVVVCCAAAADADDDDDDDGGGGGGGGGGGGGDGGGGlbclDSAAVVlKKKK",
"KKKKdgjjjlllxxxbbbbbMbMMMMMMMVBMBVVVVVVVVVVVVVVVVVaaMMMbbcxlKKKK",
"KKKKKKKKKKKKKKKKKKKKKKKKKKKJhlxMbljgpAKKKKKKKKKKKKKKKKKKKKKKKKKK",
"KKKKKKKKKKKKKKKKKKKKKKKKKKKHBAGHHAbldVKKKKKKKKKKKKKKKKKKKKKKKKKK",
"KKKKKKKKKKKKKKKKKKKKKKKKKKKHCDHKHDMldBKKKKKKKKKKKKKKKKKKKKKKKKKK",
"KKKKKKKKKKKKKKKKKKKKKKKKKKKGVDHJHSbldbKKKKKKKKKKKKKKKKKKKKKKKKKK",
"KKKKKKKKKKKKKKKKKKKKKKJHGGDbNDHKHDMxxjSDGHJJKKKKKKKKKKKKKKKKKKKK",
"KKKKKKKJKKKKJJHGDAZVMMMMMMMgglxMMbxjfgbMMMMMMBVADGHHJJKKKKKKKKKK",
"KKKKKKKKJAalMSHJJJJJHGDAVVMxdfgggggddlNVVADGJJJJJJHSNczCHJKKKKKK",
"KKKKKJHHHDMxllzMSDAVCADGHGHHHGHGGHHHHGHGHHGSNnvcxhsfkxNSGGHHKKKK",
"KKKKJHHGGGDSAAVNNBMclfpXoafkxmBASSAVMbxkgdaaafjlxbMBVASDGGHHKKKK",
"KKKKKKJJHHHGGGDSAVVVVNMbbcxxxbbbBMbbbbcxccbMMNBVCASDDGGGHHJJKKKK",
"KKKKKKKKKKKKKKKKKKKKKKKJKKJKKKJKKKKJKKKKKKJKKKKKKKKKKKKKKKKKKKKK",
"KKKKKKKKKKKKKKKKKKKKKKKKKKKKKKKKKKKKKKKKKKKKKKKKKKKKKKKKKKKKKKKK",
"KKKKKKKKKKKKKKKKKKKKKKKKKKKKKKKKKKKKKKKKKKKKKKKKKKKKKKKKKKKKKKKK",
"KKKKKKKKKKKKKKKKKKKKKKKKKKKKKKKKKKKKKKKKKKKKKKKKKKKKKKKKKKKKKKKK",
"KKKKKKKKKKKKKKKKKKKKKKKKKKKKKKKKKKKKKKKKKKKKKKKKKKKKKKKKKKKKKKKK",
"KKKKKKKKKKKKKKKKKKKKKKKKKKKKKKKKKKKKKKKKKKKKKKKKKKKKKKKKKKKKKKKK"
};
